<svg width="128" height="17" fill="none" xmlns="http://www.w3.org/2000/svg">
  <path d="M0 16.981V0h3.183l7.86 5.51h.12L19.023 0h3.183v16.981h-3.8V4.75l-5.391 3.61v8.621h-3.8V8.36L3.8 4.75v12.231H0ZM25.773 16.981V0h3.8v16.981h-3.8ZM33.131 16.981V0h3.848l12.017 12.207V0h3.8v16.981H48.95L36.93 4.75v12.231h-3.8ZM56.353 16.981V0h3.8v16.981h-3.8ZM63.711 16.981V0h3.183l7.861 5.51h.119L82.735 0h3.183v16.981h-3.8V4.75l-5.392 3.61v8.621h-3.8V8.36l-5.415-3.61v12.231h-3.8ZM88.06 16.981 95.707 0h5.866l7.648 16.981h-4.133l-1.615-3.586h-9.666l-1.615 3.586H88.06Zm7.125-6.674h6.911L98.795 2.97h-.31l-3.3 7.338ZM111.362 16.981V0h3.8v13.894h12.421v3.087h-16.221Z" fill="#fff"/>
</svg>
